<!-- Generated by IcoMoon.io -->
<svg version="1.1" xmlns="http://www.w3.org/2000/svg" width="32" height="32" viewBox="0 0 32 32">
<title>icon-1</title>
<path d="M31.131 12.878c0 0-9.319 9.319-9.319 9.319s-21.466 9.45-21.466 9.45c0 0 9.456-21.466 9.456-21.466s9.319-9.313 9.319-9.313c0.405-0.405 1.058-0.405 1.469 0 0.405 0.405 0.405 1.058 0 1.469 0 0-9.045 9.038-9.045 9.038s-5.597 12.715-5.597 12.715c0 0 1.959 1.959 1.959 1.959s12.709-5.603 12.709-5.603c0 0 9.045-9.038 9.045-9.038 0.405-0.405 1.058-0.405 1.469 0 0.405 0.405 0.405 1.065 0 1.469zM19.429 18.593c-0.209 0.196-0.47 0.3-0.738 0.3s-0.529-0.105-0.731-0.3c-0.405-0.411-0.405-1.064 0-1.469 0 0 8.705-8.712 8.705-8.712 0.405-0.405 1.058-0.405 1.469 0 0.405 0.411 0.405 1.065 0 1.469 0 0-8.705 8.712-8.705 8.712zM17.149 16.32c-0.202 0.196-0.464 0.3-0.731 0.3s-0.529-0.105-0.731-0.3c-0.411-0.411-0.411-1.071 0-1.476 0 0 8.705-8.705 8.705-8.705 0.405-0.405 1.058-0.405 1.469 0 0.405 0.405 0.405 1.064 0 1.469 0 0-8.712 8.712-8.712 8.712zM14.877 14.041c-0.202 0.202-0.464 0.307-0.731 0.307s-0.536-0.104-0.738-0.307c-0.405-0.405-0.405-1.065 0-1.469 0 0 8.712-8.705 8.712-8.705 0.405-0.405 1.064-0.405 1.469 0s0.405 1.064 0 1.469c0 0-8.712 8.705-8.712 8.705z"></path>
</svg>
