<!-- Generated by IcoMoon.io -->
<svg version="1.1" xmlns="http://www.w3.org/2000/svg" width="32" height="32" viewBox="0 0 32 32">
<title>icon-3</title>
<path d="M31.949 15.891c0-1.178-0.851-2.436-1.898-2.807s-2.058-1.273-2.356-1.993c-0.291-0.713-0.218-2.073 0.262-3.076 0.473-1.004 0.182-2.495-0.647-3.331-0.836-0.829-2.32-1.12-3.324-0.64-1.004 0.473-2.364 0.553-3.076 0.255-0.72-0.291-1.622-1.309-1.993-2.356-0.378-1.047-1.636-1.891-2.815-1.891s-2.436 0.844-2.807 1.891c-0.371 1.047-1.28 2.065-1.993 2.356-0.713 0.298-2.073 0.218-3.076-0.255-1.004-0.48-2.495-0.189-3.324 0.64-0.836 0.836-1.127 2.327-0.647 3.331s0.553 2.364 0.255 3.076c-0.291 0.713-1.302 1.622-2.349 1.993s-1.898 1.629-1.898 2.807c0 1.178 0.851 2.436 1.898 2.807s2.058 1.28 2.356 1.993c0.291 0.713 0.218 2.073-0.262 3.076s-0.189 2.495 0.647 3.331c0.829 0.829 2.32 1.12 3.324 0.64 1.004-0.473 2.364-0.553 3.076-0.255s1.622 1.309 1.993 2.356c0.371 1.047 1.629 1.891 2.807 1.891s2.436-0.844 2.815-1.891c0.371-1.047 1.273-2.058 1.985-2.356 0.72-0.298 2.080-0.218 3.084 0.255 1.004 0.48 2.487 0.189 3.324-0.64 0.829-0.836 1.12-2.327 0.647-3.331-0.48-1.004-0.56-2.364-0.262-3.076 0.291-0.713 1.309-1.622 2.356-1.993s1.898-1.629 1.898-2.807zM16.102 21.702c-3.215 0-5.811-2.596-5.811-5.804 0-3.215 2.596-5.811 5.811-5.811 3.207 0 5.811 2.596 5.811 5.811 0 3.207-2.604 5.804-5.811 5.804z"></path>
</svg>
