<!-- Generated by IcoMoon.io -->
<svg version="1.1" xmlns="http://www.w3.org/2000/svg" width="35" height="32" viewBox="0 0 35 32">
<title>icon-2</title>
<path d="M0.328 15.76c0 0 3.192-1.72 3.192-1.72s13.96 7.528 13.96 7.528c0 0 13.96-7.528 13.96-7.528s3.192 1.72 3.192 1.72c0 0-17.152 9.24-17.152 9.24s-17.152-9.24-17.152-9.24zM0.328 9.336c0 0 17.152-9.248 17.152-9.248s17.152 9.248 17.152 9.248c0 0-17.152 9.248-17.152 9.248s-17.152-9.248-17.152-9.248zM17.48 27.984c0 0 13.96-7.528 13.96-7.528s3.192 1.72 3.192 1.72c0 0-17.152 9.248-17.152 9.248s-17.152-9.248-17.152-9.248c0 0 3.192-1.72 3.192-1.72s13.96 7.528 13.96 7.528z"></path>
</svg>
