<!-- Generated by IcoMoon.io -->
<svg version="1.1" xmlns="http://www.w3.org/2000/svg" width="46" height="32" viewBox="0 0 46 32">
<title>icon-4</title>
<path d="M45.698 12.747c0 0-8.436 17.262-8.436 17.262-0.524 1.084-1.947 1.973-3.147 1.973 0 0-31.378 0-31.378 0-1.2 0-1.751-0.889-1.218-1.973 0 0 8.436-17.262 8.436-17.262 0.533-1.084 1.947-1.973 3.147-1.973 0 0 31.378 0 31.378 0 1.2 0 1.751 0.889 1.218 1.973zM8 11.778c0 0-7.342 15.022-7.342 15.022s0-19.707 0-19.707c0-1.209 0.978-2.204 2.187-2.204 0 0 9.609 0 9.609 0s0-1.28 0-1.28c0-0.889 0.338-1.716 0.96-2.338 0.622-0.631 1.449-0.978 2.32-0.978 0 0 5.591 0 5.591 0 1.804 0 3.271 1.484 3.271 3.316 0 0 0 1.28 0 1.28s9.618 0 9.618 0c1.2 0 2.187 0.996 2.187 2.204 0 0 0 1.476 0 1.476s-23.298 0-23.298 0c-2.018 0-4.213 1.378-5.102 3.209zM14.64 4.889c0 0 7.778 0 7.778 0s0-1.28 0-1.28c0-0.613-0.489-1.102-1.093-1.102 0 0-5.591 0-5.591 0-0.293 0-0.569 0.107-0.773 0.32s-0.32 0.489-0.32 0.782c0 0 0 1.28 0 1.28z"></path>
</svg>
